<svg width="100%" viewBox="0 0 680 700" xmlns="http://www.w3.org/2000/svg" role="img" style="">
<title style="fill:rgb(0, 0, 0);stroke:none;color:rgb(255, 255, 255);stroke-width:1px;stroke-linecap:butt;stroke-linejoin:miter;opacity:1;font-family:&quot;Anthropic Sans&quot;, -apple-system, &quot;system-ui&quot;, &quot;Segoe UI&quot;, sans-serif;font-size:16px;font-weight:400;text-anchor:start;dominant-baseline:auto">Map of New Jersey with northeastern service-area counties highlighted</title>
<desc style="fill:rgb(0, 0, 0);stroke:none;color:rgb(255, 255, 255);stroke-width:1px;stroke-linecap:butt;stroke-linejoin:miter;opacity:1;font-family:&quot;Anthropic Sans&quot;, -apple-system, &quot;system-ui&quot;, &quot;Segoe UI&quot;, sans-serif;font-size:16px;font-weight:400;text-anchor:start;dominant-baseline:auto">The state of New Jersey. Bergen, Passaic, Morris, Essex, Hudson and Union counties are shaded as the service area.</desc>

<path d="M257.0 409.2L266.7 397.2L269.5 393.7L272.8 390.7L277.0 389.6L282.1 393.9L280.3 397.2L280.4 398.2L280.8 399.0L280.6 399.4L281.5 400.1L281.5 400.7L281.2 402.8L285.3 404.7L286.5 404.2L289.3 405.0L287.4 406.9L287.5 408.0L291.5 409.7L294.0 414.8L298.1 418.5L299.1 422.2L304.0 444.3L306.9 446.8L309.4 446.8L315.8 444.6L322.5 445.9L326.8 449.4L330.6 455.0L333.6 457.0L338.0 460.6L324.8 475.5L309.3 493.1L298.4 471.1L266.4 447.4L252.8 413.6L257.0 409.2Z" style="fill:rgb(44, 44, 42);stroke:rgb(74, 74, 71);color:rgb(255, 255, 255);stroke-width:0.75px;stroke-linecap:butt;stroke-linejoin:round;opacity:1;font-family:&quot;Anthropic Sans&quot;, -apple-system, &quot;system-ui&quot;, &quot;Segoe UI&quot;, sans-serif;font-size:16px;font-weight:400;text-anchor:start;dominant-baseline:auto"/>
<path d="M241.1 424.4L246.5 420.1L252.8 413.6L266.4 447.4L298.4 471.1L309.3 493.1L302.3 501.0L287.2 518.1L271.6 503.7L243.4 477.5L217.6 471.3L207.0 456.4L194.3 447.0L194.8 446.3L199.3 443.0L199.5 441.4L204.6 437.5L207.7 435.0L221.6 428.6L228.9 428.7L236.2 426.8L241.1 424.4Z" style="fill:rgb(44, 44, 42);stroke:rgb(74, 74, 71);color:rgb(255, 255, 255);stroke-width:0.75px;stroke-linecap:butt;stroke-linejoin:round;opacity:1;font-family:&quot;Anthropic Sans&quot;, -apple-system, &quot;system-ui&quot;, &quot;Segoe UI&quot;, sans-serif;font-size:16px;font-weight:400;text-anchor:start;dominant-baseline:auto"/>
<path d="M301.6 608.1L312.6 569.1L345.5 578.2L377.8 575.4L375.8 577.2L375.4 578.9L373.8 581.1L369.7 583.2L366.3 586.4L362.9 590.2L358.5 596.6L356.4 598.9L355.4 602.5L351.3 607.5L342.5 623.6L342.3 624.3L342.6 624.9L344.6 626.8L344.3 628.1L337.6 635.6L329.4 649.4L327.8 655.5L326.5 657.7L323.4 659.3L321.1 661.1L314.7 667.7L311.9 671.5L310.6 670.6L308.2 671.1L303.2 673.7L300.5 674.5L297.8 674.7L291.7 673.9L290.9 673.3L289.9 671.5L293.3 655.2L294.5 651.4L296.8 646.2L303.9 632.2L305.1 629.2L306.1 625.3L307.5 617.2L307.2 613.1L303.6 608.8L301.6 608.1Z" style="fill:rgb(44, 44, 42);stroke:rgb(74, 74, 71);color:rgb(255, 255, 255);stroke-width:0.75px;stroke-linecap:butt;stroke-linejoin:round;opacity:1;font-family:&quot;Anthropic Sans&quot;, -apple-system, &quot;system-ui&quot;, &quot;Segoe UI&quot;, sans-serif;font-size:16px;font-weight:400;text-anchor:start;dominant-baseline:auto"/>
<path d="M340.5 196.4L342.8 232.6L328.6 258.2L335.6 275.2L313.6 295.9L296.9 297.5L279.2 280.8L277.0 280.0L272.2 276.9L271.7 275.6L269.8 267.0L270.8 249.8L270.9 248.0L270.5 245.3L270.2 243.7L263.7 236.9L260.3 235.4L256.6 234.8L254.1 235.4L245.4 231.1L245.2 230.6L290.6 198.7L306.7 178.1L340.5 196.4Z" style="fill:rgb(44, 44, 42);stroke:rgb(74, 74, 71);color:rgb(255, 255, 255);stroke-width:0.75px;stroke-linecap:butt;stroke-linejoin:round;opacity:1;font-family:&quot;Anthropic Sans&quot;, -apple-system, &quot;system-ui&quot;, &quot;Segoe UI&quot;, sans-serif;font-size:16px;font-weight:400;text-anchor:start;dominant-baseline:auto"/>
<path d="M340.5 349.2L341.0 347.4L340.9 345.6L333.5 334.7L331.0 331.1L312.7 312.5L296.9 297.5L313.6 295.9L335.6 275.2L340.9 288.3L361.2 285.8L362.3 287.6L361.9 288.5L371.5 308.1L389.5 320.9L368.3 351.6L367.9 351.4L367.4 351.5L366.9 351.7L340.5 349.2Z" style="fill:rgb(44, 44, 42);stroke:rgb(74, 74, 71);color:rgb(255, 255, 255);stroke-width:0.75px;stroke-linecap:butt;stroke-linejoin:round;opacity:1;font-family:&quot;Anthropic Sans&quot;, -apple-system, &quot;system-ui&quot;, &quot;Segoe UI&quot;, sans-serif;font-size:16px;font-weight:400;text-anchor:start;dominant-baseline:auto"/>
<path d="M403.1 506.7L408.7 496.4L408.8 449.0L399.6 427.3L380.4 378.6L375.4 367.4L405.3 342.5L434.5 343.6L442.5 359.4L466.3 352.0L481.9 361.5L481.5 361.9L480.3 366.8L476.4 388.2L475.3 394.1L472.6 412.3L469.8 441.9L468.5 450.5L468.6 451.8L468.2 452.7L467.6 453.6L465.2 457.7L459.4 471.4L449.4 488.6L439.3 507.4L437.5 509.2L431.7 518.3L428.8 520.0L424.9 520.2L424.6 522.1L403.1 506.7Z" style="fill:rgb(44, 44, 42);stroke:rgb(74, 74, 71);color:rgb(255, 255, 255);stroke-width:0.75px;stroke-linecap:butt;stroke-linejoin:round;opacity:1;font-family:&quot;Anthropic Sans&quot;, -apple-system, &quot;system-ui&quot;, &quot;Segoe UI&quot;, sans-serif;font-size:16px;font-weight:400;text-anchor:start;dominant-baseline:auto"/>
<path d="M194.3 447.0L207.0 456.4L217.6 471.3L243.4 477.5L271.6 503.7L267.0 533.3L235.3 506.2L209.0 533.7L201.1 553.6L198.0 552.3L196.1 551.0L193.9 548.1L189.2 538.3L187.0 538.6L185.5 537.8L181.0 534.6L180.4 532.9L174.7 532.6L173.4 529.9L173.1 527.5L173.4 523.0L176.4 522.5L176.6 522.0L179.1 505.3L179.7 504.0L179.5 501.2L176.9 499.6L175.8 498.5L175.1 497.9L174.5 497.2L174.1 496.9L173.2 496.4L170.7 493.8L170.0 487.4L176.7 480.5L180.2 472.5L181.3 469.1L187.2 460.3L187.4 459.1L188.4 457.0L189.0 455.1L192.7 448.9L194.3 447.0Z" style="fill:rgb(44, 44, 42);stroke:rgb(74, 74, 71);color:rgb(255, 255, 255);stroke-width:0.75px;stroke-linecap:butt;stroke-linejoin:round;opacity:1;font-family:&quot;Anthropic Sans&quot;, -apple-system, &quot;system-ui&quot;, &quot;Segoe UI&quot;, sans-serif;font-size:16px;font-weight:400;text-anchor:start;dominant-baseline:auto"/>
<path d="M328.6 258.2L342.8 232.6L340.5 196.4L374.9 186.1L376.3 190.6L380.4 194.1L380.8 198.7L383.5 202.3L379.3 210.3L381.5 215.0L384.1 214.8L385.5 212.3L389.5 211.3L389.5 210.6L392.4 210.1L394.2 208.7L405.0 216.5L403.2 220.8L398.9 225.6L393.8 228.5L383.1 243.0L383.3 243.6L383.7 244.2L385.6 245.9L386.4 246.4L387.2 247.1L388.2 248.8L394.5 257.4L388.4 261.8L387.7 262.8L361.9 288.5L362.3 287.6L361.2 285.8L340.9 288.3L335.6 275.2L328.6 258.2Z" style="fill:rgb(44, 44, 42);stroke:rgb(74, 74, 71);color:rgb(255, 255, 255);stroke-width:0.75px;stroke-linecap:butt;stroke-linejoin:round;opacity:1;font-family:&quot;Anthropic Sans&quot;, -apple-system, &quot;system-ui&quot;, &quot;Segoe UI&quot;, sans-serif;font-size:16px;font-weight:400;text-anchor:start;dominant-baseline:auto"/>
<path d="M288.2 100.6L290.7 98.0L291.0 96.5L327.2 139.8L331.6 145.0L306.7 178.1L290.6 198.7L245.2 230.6L244.0 226.0L243.2 223.4L242.6 203.8L244.1 187.8L249.2 180.8L250.8 180.6L253.7 181.6L256.8 181.9L262.1 177.2L273.3 158.9L273.8 157.3L273.5 155.6L260.2 134.0L259.7 131.7L259.6 129.9L257.4 129.7L256.5 128.4L257.6 123.8L261.9 120.4L265.6 118.2L270.1 116.3L273.6 114.2L276.7 112.2L278.9 110.1L288.2 100.6Z" style="fill:rgb(44, 44, 42);stroke:rgb(74, 74, 71);color:rgb(255, 255, 255);stroke-width:0.75px;stroke-linecap:butt;stroke-linejoin:round;opacity:1;font-family:&quot;Anthropic Sans&quot;, -apple-system, &quot;system-ui&quot;, &quot;Segoe UI&quot;, sans-serif;font-size:16px;font-weight:400;text-anchor:start;dominant-baseline:auto"/>
<path d="M290.4 95.8L289.4 93.7L299.9 84.6L308.3 73.2L311.3 65.7L311.9 61.4L311.3 60.3L312.4 56.9L317.2 47.4L318.9 44.8L325.9 36.3L332.9 31.6L346.5 26.0L394.9 55.2L408.3 63.9L413.7 67.1L385.7 98.5L385.3 98.8L378.9 105.8L355.0 142.4L331.6 145.0L327.2 139.8L291.1 96.3L290.4 95.8Z" style="fill:rgb(44, 44, 42);stroke:rgb(74, 74, 71);color:rgb(255, 255, 255);stroke-width:0.75px;stroke-linecap:butt;stroke-linejoin:round;opacity:1;font-family:&quot;Anthropic Sans&quot;, -apple-system, &quot;system-ui&quot;, &quot;Segoe UI&quot;, sans-serif;font-size:16px;font-weight:400;text-anchor:start;dominant-baseline:auto"/>
<path d="M309.3 493.1L324.8 475.5L338.0 460.6L361.4 488.2L390.5 507.1L403.1 506.7L424.6 522.1L424.3 523.7L425.4 526.3L426.1 526.6L426.7 527.7L426.2 529.7L420.0 540.2L413.4 548.2L405.3 554.7L405.3 555.7L405.0 558.1L404.1 559.2L394.5 563.4L381.8 571.8L377.8 575.4L345.5 578.2L312.6 569.1L313.6 542.2L287.2 518.1L302.3 501.0L309.3 493.1Z" style="fill:rgb(44, 44, 42);stroke:rgb(74, 74, 71);color:rgb(255, 255, 255);stroke-width:0.75px;stroke-linecap:butt;stroke-linejoin:round;opacity:1;font-family:&quot;Anthropic Sans&quot;, -apple-system, &quot;system-ui&quot;, &quot;Segoe UI&quot;, sans-serif;font-size:16px;font-weight:400;text-anchor:start;dominant-baseline:auto"/>
<path d="M304.6 367.9L317.3 361.6L337.2 352.4L340.5 349.2L366.9 351.7L367.4 351.7L367.9 351.4L368.3 351.6L375.4 367.4L380.4 378.6L399.6 427.3L408.8 449.0L408.7 496.4L403.1 506.7L390.5 507.1L361.4 488.2L338.0 460.6L333.6 457.0L330.6 455.0L326.8 449.4L322.5 445.9L315.8 444.6L309.4 446.8L306.9 446.8L304.1 444.4L299.1 422.2L298.1 418.5L294.0 414.8L291.5 409.7L287.5 408.0L287.4 406.9L289.3 405.0L286.5 404.2L285.3 404.7L281.2 402.8L281.5 400.7L281.5 400.1L280.6 399.4L280.8 399.0L280.6 398.3L280.3 397.2L282.1 393.9L277.0 389.6L272.8 390.7L281.3 382.9L289.4 375.5L304.6 367.9Z" style="fill:rgb(44, 44, 42);stroke:rgb(74, 74, 71);color:rgb(255, 255, 255);stroke-width:0.75px;stroke-linecap:butt;stroke-linejoin:round;opacity:1;font-family:&quot;Anthropic Sans&quot;, -apple-system, &quot;system-ui&quot;, &quot;Segoe UI&quot;, sans-serif;font-size:16px;font-weight:400;text-anchor:start;dominant-baseline:auto"/>
<path d="M201.1 553.6L209.0 533.7L235.3 506.2L267.0 533.3L271.6 503.7L287.2 518.1L313.6 542.2L312.6 569.1L301.6 608.1L291.9 604.8L289.1 604.2L284.6 604.5L278.9 603.9L278.3 603.6L278.5 602.3L279.4 601.5L279.4 600.9L278.8 599.5L276.9 598.0L275.7 598.0L274.5 599.0L273.5 598.5L271.4 598.5L266.6 600.0L263.6 599.0L262.3 599.1L260.8 600.1L258.3 604.9L256.3 607.6L255.8 607.5L250.3 601.7L250.6 597.7L249.4 592.9L248.0 590.7L242.2 585.4L240.8 585.4L234.9 582.4L234.4 581.4L234.6 580.6L234.3 579.3L232.8 575.5L228.8 574.4L226.5 575.7L226.0 577.5L225.2 578.2L221.7 575.0L219.9 572.6L217.5 566.8L217.4 565.0L216.1 563.3L214.4 562.4L211.6 562.7L209.7 564.4L204.6 559.9L203.7 558.4L203.5 556.4L202.7 554.2L201.1 553.6Z" style="fill:rgb(44, 44, 42);stroke:rgb(74, 74, 71);color:rgb(255, 255, 255);stroke-width:0.75px;stroke-linecap:butt;stroke-linejoin:round;opacity:1;font-family:&quot;Anthropic Sans&quot;, -apple-system, &quot;system-ui&quot;, &quot;Segoe UI&quot;, sans-serif;font-size:16px;font-weight:400;text-anchor:start;dominant-baseline:auto"/>
<path d="M388.2 248.8L387.2 247.1L386.4 246.4L385.6 245.9L383.7 244.2L383.3 243.6L383.1 243.0L393.8 228.5L395.1 229.5L399.1 229.0L401.7 228.7L403.4 228.6L406.7 228.1L407.8 228.0L412.3 227.7L426.4 225.9L428.9 230.4L435.7 227.7L436.1 227.7L436.5 228.0L437.8 228.2L441.0 228.6L444.4 227.2L446.2 229.7L445.7 234.6L444.5 238.8L443.8 239.7L441.1 239.2L437.6 241.7L437.0 243.7L438.1 249.4L433.6 255.2L433.2 256.3L432.7 258.1L433.7 262.5L434.9 264.4L440.0 266.2L442.4 267.5L414.7 303.5L411.1 307.3L410.5 308.0L407.9 311.5L408.0 313.8L405.0 315.4L394.3 321.4L389.5 320.9L371.5 308.1L361.9 288.5L387.5 263.0L388.4 261.8L394.5 257.4L388.2 248.8Z" style="fill:rgb(44, 44, 42);stroke:rgb(74, 74, 71);color:rgb(255, 255, 255);stroke-width:0.75px;stroke-linecap:butt;stroke-linejoin:round;opacity:1;font-family:&quot;Anthropic Sans&quot;, -apple-system, &quot;system-ui&quot;, &quot;Segoe UI&quot;, sans-serif;font-size:16px;font-weight:400;text-anchor:start;dominant-baseline:auto"/>
<path d="M405.0 315.4L408.0 313.8L407.9 311.5L410.5 308.0L411.1 307.3L414.7 303.5L442.4 267.5L442.8 267.7L445.5 269.0L446.3 270.8L446.2 271.3L445.8 271.7L446.1 272.2L447.1 271.3L448.8 270.7L449.3 270.2L450.0 269.0L452.7 266.8L452.6 268.6L452.6 269.2L453.7 268.2L454.3 268.7L454.4 269.1L454.9 268.8L456.1 269.2L457.0 269.0L459.2 268.2L459.8 267.4L460.6 266.9L461.1 267.1L461.6 267.5L462.3 268.0L462.9 268.4L463.4 268.8L464.5 269.4L470.4 271.4L472.8 272.7L476.3 275.6L478.6 276.6L487.1 278.7L488.7 278.8L489.3 276.5L490.1 270.2L487.1 264.4L484.7 262.4L484.7 261.8L485.5 261.3L486.9 261.6L489.2 263.3L492.8 270.9L493.1 279.4L494.2 289.2L494.2 295.6L493.0 308.6L492.1 313.9L489.7 325.0L485.1 343.9L482.2 355.7L481.4 361.0L481.9 361.5L466.3 352.0L442.5 359.4L434.5 343.6L405.3 342.5L375.4 367.4L368.3 351.6L389.5 320.9L394.3 321.4L405.0 315.4Z" style="fill:rgb(44, 44, 42);stroke:rgb(74, 74, 71);color:rgb(255, 255, 255);stroke-width:0.75px;stroke-linecap:butt;stroke-linejoin:round;opacity:1;font-family:&quot;Anthropic Sans&quot;, -apple-system, &quot;system-ui&quot;, &quot;Segoe UI&quot;, sans-serif;font-size:16px;font-weight:400;text-anchor:start;dominant-baseline:auto"/>
<path d="M440.5 83.3L444.8 85.7L433.1 115.5L453.4 127.6L453.6 125.8L459.6 130.4L458.5 135.2L458.1 136.9L461.8 169.5L438.0 153.3L435.3 152.5L433.1 149.0L427.0 120.7L425.1 121.9L424.0 120.9L420.0 120.5L385.7 98.5L413.7 67.3L440.5 83.3Z" style="fill:rgba(187, 34, 34, 0.72);stroke:rgb(240, 149, 149);color:rgb(255, 255, 255);stroke-width:0.9px;stroke-linecap:butt;stroke-linejoin:round;opacity:1;font-family:&quot;Anthropic Sans&quot;, -apple-system, &quot;system-ui&quot;, &quot;Segoe UI&quot;, sans-serif;font-size:16px;font-weight:400;text-anchor:start;dominant-baseline:auto"/>
<path d="M444.8 85.7L468.6 99.1L469.5 99.6L480.0 105.7L506.3 121.1L508.2 122.2L510.0 122.2L505.1 143.5L504.7 144.6L503.2 149.3L502.0 152.9L501.0 154.9L498.9 159.3L491.0 175.3L484.8 168.6L479.2 172.8L458.2 178.5L460.1 175.2L459.8 174.0L460.5 170.0L461.8 169.5L458.1 137.1L458.5 135.2L459.6 130.4L453.6 125.8L453.4 127.6L433.1 115.5L444.8 85.7Z" style="fill:rgba(187, 34, 34, 0.72);stroke:rgb(240, 149, 149);color:rgb(255, 255, 255);stroke-width:0.9px;stroke-linecap:butt;stroke-linejoin:round;opacity:1;font-family:&quot;Anthropic Sans&quot;, -apple-system, &quot;system-ui&quot;, &quot;Segoe UI&quot;, sans-serif;font-size:16px;font-weight:400;text-anchor:start;dominant-baseline:auto"/>
<path d="M454.7 187.0L454.5 189.5L455.3 192.0L464.5 191.7L464.5 198.8L465.3 200.7L463.3 203.9L460.4 208.4L447.2 205.1L442.9 199.6L430.0 195.6L426.9 198.0L426.4 198.0L426.0 197.9L425.6 197.8L425.2 197.6L424.7 197.4L424.5 197.0L424.0 196.6L423.2 196.4L422.7 196.5L421.9 197.0L418.4 194.8L415.9 192.4L412.4 191.1L420.1 146.7L433.1 149.0L435.3 152.5L438.0 153.3L461.8 169.5L460.5 170.0L459.8 174.0L460.1 175.2L458.2 178.5L458.2 179.0L458.1 180.2L456.6 182.7L456.2 183.9L455.0 185.7L454.7 187.0Z" style="fill:rgba(187, 34, 34, 0.72);stroke:rgb(240, 149, 149);color:rgb(255, 255, 255);stroke-width:0.9px;stroke-linecap:butt;stroke-linejoin:round;opacity:1;font-family:&quot;Anthropic Sans&quot;, -apple-system, &quot;system-ui&quot;, &quot;Segoe UI&quot;, sans-serif;font-size:16px;font-weight:400;text-anchor:start;dominant-baseline:auto"/>
<path d="M491.0 175.3L489.8 177.9L488.2 181.1L486.5 184.6L485.5 186.5L483.3 199.0L480.5 198.7L477.9 202.7L474.1 205.7L471.5 208.6L470.0 212.3L470.5 214.0L469.1 215.0L459.1 217.1L455.4 216.5L455.6 216.0L457.1 213.6L460.4 208.4L463.3 203.9L465.3 200.7L464.5 198.8L464.5 191.7L455.3 192.0L454.5 189.5L454.7 187.0L455.0 185.7L456.2 183.9L456.6 182.7L458.1 180.2L458.2 179.0L458.2 178.5L479.2 172.8L484.8 168.6L491.0 175.3Z" style="fill:rgba(187, 34, 34, 0.72);stroke:rgb(240, 149, 149);color:rgb(255, 255, 255);stroke-width:0.9px;stroke-linecap:butt;stroke-linejoin:round;opacity:1;font-family:&quot;Anthropic Sans&quot;, -apple-system, &quot;system-ui&quot;, &quot;Segoe UI&quot;, sans-serif;font-size:16px;font-weight:400;text-anchor:start;dominant-baseline:auto"/>
<path d="M331.6 145.0L355.0 142.4L378.9 105.8L385.3 98.8L385.7 98.5L420.0 120.5L424.0 120.9L425.1 121.9L427.0 120.7L433.1 149.0L420.1 146.7L412.4 191.1L394.2 208.7L392.4 210.1L389.5 210.6L389.5 211.3L385.5 212.3L384.1 214.8L381.5 215.0L379.3 210.3L383.5 202.3L380.8 198.7L380.4 194.1L376.3 190.6L374.9 186.1L340.5 196.4L306.7 178.1L331.6 145.0Z" style="fill:rgba(187, 34, 34, 0.72);stroke:rgb(240, 149, 149);color:rgb(255, 255, 255);stroke-width:0.9px;stroke-linecap:butt;stroke-linejoin:round;opacity:1;font-family:&quot;Anthropic Sans&quot;, -apple-system, &quot;system-ui&quot;, &quot;Segoe UI&quot;, sans-serif;font-size:16px;font-weight:400;text-anchor:start;dominant-baseline:auto"/>
<path d="M446.2 229.7L444.4 227.2L441.0 228.6L437.8 228.2L436.5 228.0L436.1 227.7L435.7 227.7L428.9 230.4L426.4 225.9L412.3 227.7L407.8 228.0L406.7 228.1L403.4 228.6L401.7 228.7L399.1 229.0L395.1 229.5L393.8 228.5L398.9 225.6L403.2 220.8L405.0 216.5L394.2 208.7L412.4 191.1L415.9 192.4L418.4 194.8L421.9 197.0L422.7 196.5L423.2 196.4L423.8 196.4L424.3 196.8L424.7 197.4L425.1 197.4L425.6 197.8L426.0 197.9L426.4 198.0L426.9 198.0L430.0 195.6L442.9 199.6L447.2 205.1L460.4 208.4L457.1 213.6L455.6 216.0L455.4 216.5L451.4 215.9L450.4 216.0L449.8 216.6L447.1 220.0L446.2 229.7Z" style="fill:rgba(187, 34, 34, 0.72);stroke:rgb(240, 149, 149);color:rgb(255, 255, 255);stroke-width:0.9px;stroke-linecap:butt;stroke-linejoin:round;opacity:1;font-family:&quot;Anthropic Sans&quot;, -apple-system, &quot;system-ui&quot;, &quot;Segoe UI&quot;, sans-serif;font-size:16px;font-weight:400;text-anchor:start;dominant-baseline:auto"/>
</svg>